{"asset":{"version":"2.0","generator":"Scorpion Leather Studio V0.36 shared family development twins · validated embedded buffers"},"scene":0,"scenes":[{"nodes":[0]}],"nodes":[{"name":"SLS_ProductRoot","children":[1,8,15,23,31,37,42]},{"name":"Family_ToolBelt","children":[2,3,4,5,6,7]},{"name":"Belt_Main","mesh":0,"translation":[0,0.13,0],"scale":[0.78,0.08,0.055]},{"name":"Pouch_Left","mesh":0,"translation":[-0.24,-0.03,0.07],"scale":[0.24,0.32,0.18]},{"name":"Pouch_Center","mesh":0,"translation":[0,-0.08,0.09],"scale":[0.2,0.26,0.19]},{"name":"Pouch_Right","mesh":0,"translation":[0.24,-0.03,0.07],"scale":[0.24,0.32,0.18]},{"name":"Hardware_Left","mesh":0,"translation":[-0.39,0.13,0.04],"scale":[0.045,0.095,0.07]},{"name":"Hardware_Right","mesh":0,"translation":[0.39,0.13,0.04],"scale":[0.045,0.095,0.07]},{"name":"Family_ToolPouchSet","children":[9,10,11,12,13,14]},{"name":"Large_Pouch","mesh":0,"translation":[-0.14,0,0],"scale":[0.34,0.48,0.21]},{"name":"Large_Flap","mesh":0,"translation":[-0.14,0.15,0.13],"scale":[0.32,0.16,0.05]},{"name":"Small_Pouch","mesh":0,"translation":[0.23,-0.08,0.02],"scale":[0.24,0.34,0.18]},{"name":"Small_Flap","mesh":0,"translation":[0.23,0.03,0.13],"scale":[0.22,0.13,0.045]},{"name":"Belt_Loops","mesh":0,"translation":[0,0.25,-0.08],"scale":[0.5,0.07,0.05]},{"name":"Hardware_Rivets","mesh":0,"translation":[0,0.08,0.15],"scale":[0.48,0.025,0.025]},{"name":"Family_WorkHarness","children":[16,17,18,19,20,21,22]},{"name":"Back_Panel","mesh":0,"translation":[0,0.06,0],"scale":[0.34,0.42,0.08]},{"name":"Shoulder_Left","mesh":0,"translation":[-0.18,0.38,0],"scale":[0.09,0.43,0.055]},{"name":"Shoulder_Right","mesh":0,"translation":[0.18,0.38,0],"scale":[0.09,0.43,0.055]},{"name":"Lower_Panel","mesh":0,"translation":[0,-0.28,0.01],"scale":[0.46,0.18,0.1]},{"name":"Carry_Left","mesh":0,"translation":[-0.3,-0.13,0.02],"scale":[0.14,0.31,0.11]},{"name":"Carry_Right","mesh":0,"translation":[0.3,-0.13,0.02],"scale":[0.14,0.31,0.11]},{"name":"Hardware_Buckles","mesh":0,"translation":[0,0.15,0.075],"scale":[0.48,0.035,0.03]},{"name":"Family_RadioHarness","children":[24,25,26,27,28,29,30]},{"name":"Chest_Panel","mesh":0,"translation":[0,0.08,0],"scale":[0.3,0.34,0.075]},{"name":"Strap_Left","mesh":0,"translation":[-0.18,0.36,-0.01],"scale":[0.075,0.4,0.05]},{"name":"Strap_Right","mesh":0,"translation":[0.18,0.36,-0.01],"scale":[0.075,0.4,0.05]},{"name":"Radio_Pocket_Left","mesh":0,"translation":[-0.2,-0.2,0.08],"scale":[0.22,0.36,0.17]},{"name":"Radio_Pocket_Right","mesh":0,"translation":[0.2,-0.2,0.08],"scale":[0.22,0.36,0.17]},{"name":"Pocket_Flaps","mesh":0,"translation":[0,-0.04,0.19],"scale":[0.46,0.12,0.04]},{"name":"Hardware_Buckles_Radio","mesh":0,"translation":[0,0.2,0.07],"scale":[0.46,0.035,0.03]},{"name":"Family_CarpenterPouch","children":[32,33,34,35,36]},{"name":"Main_Pouch","mesh":0,"translation":[0,-0.03,0],"scale":[0.42,0.52,0.23]},{"name":"Upper_Panel","mesh":0,"translation":[0,0.2,0.09],"scale":[0.4,0.16,0.1]},{"name":"Pocket_Flap","mesh":0,"translation":[0,0.04,0.145],"scale":[0.35,0.14,0.045]},{"name":"Belt_Loop","mesh":0,"translation":[0,0.31,-0.08],"scale":[0.22,0.12,0.05]},{"name":"Hardware_Rivets_Carpenter","mesh":0,"translation":[0,0.12,0.16],"scale":[0.35,0.025,0.025]},{"name":"Family_ThighProtector","children":[38,39,40,41]},{"name":"Main_Panel","mesh":0,"translation":[0,0,0],"scale":[0.38,0.62,0.09]},{"name":"Upper_Strap","mesh":0,"translation":[0,0.34,-0.015],"scale":[0.55,0.075,0.05]},{"name":"Lower_Panel_Thigh","mesh":0,"translation":[0,-0.25,0.02],"scale":[0.36,0.18,0.1]},{"name":"Buckle","mesh":0,"translation":[0.3,0.34,0.02],"scale":[0.07,0.09,0.06]},{"name":"Family_CoolerStrap","children":[43,44,45,46,47]},{"name":"Center_Strap","mesh":0,"translation":[0,0,0],"scale":[0.95,0.08,0.055]},{"name":"Shoulder_Pad","mesh":0,"translation":[0,0.02,0.02],"scale":[0.34,0.16,0.09]},{"name":"Buckle_End_Left","mesh":0,"translation":[-0.48,0,0],"scale":[0.13,0.12,0.06]},{"name":"Buckle_End_Right","mesh":0,"translation":[0.48,0,0],"scale":[0.13,0.12,0.06]},{"name":"Hardware_Buckles_Cooler","mesh":0,"translation":[0.57,0,0.02],"scale":[0.08,0.13,0.07]}],"meshes":[{"name":"SLS_UV_Box","primitives":[{"attributes":{"POSITION":0,"NORMAL":1,"TEXCOORD_0":3},"indices":2,"material":0}]}],"materials":[{"name":"DevelopmentPlaceholder","pbrMetallicRoughness":{"baseColorFactor":[0.72,0.58,0.42,1],"metallicFactor":0,"roughnessFactor":0.75}}],"buffers":[{"byteLength":648,"uri":"data:application/octet-stream;base64,"},{"byteLength":192,"uri":"data:application/octet-stream;base64,"}],"bufferViews":[{"buffer":0,"byteOffset":0,"byteLength":288,"target":34962},{"buffer":0,"byteOffset":288,"byteLength":288,"target":34962},{"buffer":0,"byteOffset":576,"byteLength":72,"target":34963},{"buffer":1,"byteOffset":0,"byteLength":192,"target":34962}],"accessors":[{"bufferView":0,"byteOffset":0,"componentType":5126,"count":24,"type":"VEC3","min":[-0.5,-0.5,-0.5],"max":[0.5,0.5,0.5]},{"bufferView":1,"byteOffset":0,"componentType":5126,"count":24,"type":"VEC3"},{"bufferView":2,"byteOffset":0,"componentType":5123,"count":36,"type":"SCALAR","min":[0],"max":[23]},{"bufferView":3,"byteOffset":0,"componentType":5126,"count":24,"type":"VEC2","min":[0,0],"max":[1,1]}]}