{
  "asset": {
    "version": "2.0",
    "generator": "SLS V0.36 G1 family generator"
  },
  "scene": 0,
  "scenes": [
    {
      "name": "SLS_tool-belt",
      "nodes": [
        0
      ]
    }
  ],
  "nodes": [
    {
      "name": "SLS_ProductRoot",
      "children": [
        1,
        2,
        3,
        4,
        5,
        6,
        7
      ],
      "extras": {
        "slsAuthority": "G1-visual-reference",
        "familyId": "tool-belt"
      }
    },
    {
      "name": "Belt_Main",
      "mesh": 0,
      "translation": [
        0,
        0.23,
        0
      ],
      "scale": [
        1.35,
        0.12,
        0.09
      ]
    },
    {
      "name": "Pouch_Left",
      "mesh": 0,
      "translation": [
        -0.46,
        -0.04,
        0.02
      ],
      "scale": [
        0.38,
        0.46,
        0.2
      ]
    },
    {
      "name": "Pouch_Center",
      "mesh": 0,
      "translation": [
        0,
        -0.08,
        0.06
      ],
      "scale": [
        0.36,
        0.5,
        0.22
      ]
    },
    {
      "name": "Pouch_Right",
      "mesh": 0,
      "translation": [
        0.46,
        -0.04,
        0.02
      ],
      "scale": [
        0.38,
        0.46,
        0.2
      ]
    },
    {
      "name": "Pocket_Left",
      "mesh": 0,
      "translation": [
        -0.46,
        -0.08,
        0.13
      ],
      "scale": [
        0.26,
        0.24,
        0.08
      ]
    },
    {
      "name": "Pocket_Right",
      "mesh": 0,
      "translation": [
        0.46,
        -0.08,
        0.13
      ],
      "scale": [
        0.26,
        0.24,
        0.08
      ]
    },
    {
      "name": "Hardware_Buckle",
      "mesh": 1,
      "translation": [
        0.58,
        0.23,
        0.08
      ],
      "scale": [
        0.07,
        0.035,
        0.07
      ],
      "rotation": [
        0.7071067811865475,
        0,
        0,
        0.7071067811865476
      ]
    }
  ],
  "meshes": [
    {
      "name": "SLS_Box",
      "primitives": [
        {
          "attributes": {
            "POSITION": 0,
            "NORMAL": 1,
            "TEXCOORD_0": 2
          },
          "indices": 3
        }
      ]
    },
    {
      "name": "SLS_Cylinder",
      "primitives": [
        {
          "attributes": {
            "POSITION": 4,
            "NORMAL": 5,
            "TEXCOORD_0": 6
          },
          "indices": 7
        }
      ]
    }
  ],
  "buffers": [
    {
      "uri": "data:application/octet-stream;base64,",
      "byteLength": 2120
    }
  ],
  "bufferViews": [
    {
      "buffer": 0,
      "byteOffset": 0,
      "byteLength": 288,
      "target": 34962
    },
    {
      "buffer": 0,
      "byteOffset": 288,
      "byteLength": 288,
      "target": 34962
    },
    {
      "buffer": 0,
      "byteOffset": 576,
      "byteLength": 192,
      "target": 34962
    },
    {
      "buffer": 0,
      "byteOffset": 768,
      "byteLength": 72,
      "target": 34963
    },
    {
      "buffer": 0,
      "byteOffset": 840,
      "byteLength": 408,
      "target": 34962
    },
    {
      "buffer": 0,
      "byteOffset": 1248,
      "byteLength": 408,
      "target": 34962
    },
    {
      "buffer": 0,
      "byteOffset": 1656,
      "byteLength": 272,
      "target": 34962
    },
    {
      "buffer": 0,
      "byteOffset": 1928,
      "byteLength": 192,
      "target": 34963
    }
  ],
  "accessors": [
    {
      "bufferView": 0,
      "componentType": 5126,
      "count": 24,
      "type": "VEC3",
      "min": [
        -0.5,
        -0.5,
        -0.5
      ],
      "max": [
        0.5,
        0.5,
        0.5
      ]
    },
    {
      "bufferView": 1,
      "componentType": 5126,
      "count": 24,
      "type": "VEC3"
    },
    {
      "bufferView": 2,
      "componentType": 5126,
      "count": 24,
      "type": "VEC2"
    },
    {
      "bufferView": 3,
      "componentType": 5123,
      "count": 36,
      "type": "SCALAR"
    },
    {
      "bufferView": 4,
      "componentType": 5126,
      "count": 34,
      "type": "VEC3",
      "min": [
        -1,
        -0.5,
        -1
      ],
      "max": [
        1,
        0.5,
        1
      ]
    },
    {
      "bufferView": 5,
      "componentType": 5126,
      "count": 34,
      "type": "VEC3"
    },
    {
      "bufferView": 6,
      "componentType": 5126,
      "count": 34,
      "type": "VEC2"
    },
    {
      "bufferView": 7,
      "componentType": 5123,
      "count": 96,
      "type": "SCALAR"
    }
  ],
  "extras": {
    "units": "meters",
    "authority": "G1-visual-reference",
    "notManufacturingGeometry": true
  }
}
