{"asset":{"version":"2.0","generator":"Scorpion Leather Studio placeholder generator"},"scene":0,"scenes":[{"nodes":[0]}],"nodes":[{"name":"SLS_ProductRoot","children":[1,2,3,4]},{"name":"Shell_Main","mesh":0,"translation":[0,0.04,0],"scale":[0.36,0.43,0.27]},{"name":"NeckGuard_Standard","mesh":0,"translation":[0,-0.235,-0.02],"scale":[0.3,0.12,0.2]},{"name":"NeckGuard_Extended","mesh":0,"translation":[0,-0.295,-0.02],"scale":[0.32,0.24,0.21]},{"name":"Visor_Pivot","translation":[0,0.205,0.155],"children":[5,6,7]},{"name":"Visor_Frame","mesh":0,"translation":[0,-0.085,0],"scale":[0.26,0.17,0.035]},{"name":"Visor_Lens","mesh":0,"translation":[0,-0.085,0.025],"scale":[0.205,0.12,0.018]},{"name":"Rivets","mesh":0,"translation":[0,-0.085,0.025],"scale":[0.31,0.02,0.02]}],"meshes":[{"name":"PlaceholderBox","primitives":[{"attributes":{"POSITION":0,"NORMAL":1},"indices":2,"material":0}]}],"materials":[{"name":"PlaceholderMaterial","pbrMetallicRoughness":{"baseColorFactor":[0.33,0.2,0.12,1],"metallicFactor":0,"roughnessFactor":0.75}}],"buffers":[{"byteLength":648,"uri":"data:application/octet-stream;base64,"}],"bufferViews":[{"buffer":0,"byteOffset":0,"byteLength":288,"target":34962},{"buffer":0,"byteOffset":288,"byteLength":288,"target":34962},{"buffer":0,"byteOffset":576,"byteLength":72,"target":34963}],"accessors":[{"bufferView":0,"byteOffset":0,"componentType":5126,"count":24,"type":"VEC3","min":[-0.5,-0.5,-0.5],"max":[0.5,0.5,0.5]},{"bufferView":1,"byteOffset":0,"componentType":5126,"count":24,"type":"VEC3"},{"bufferView":2,"byteOffset":0,"componentType":5123,"count":36,"type":"SCALAR","min":[0],"max":[23]}]}